# xmcd
#
# Track frame offsets:
#	150
#	13884
#	29708
#	49500
#	62703
#	75828
#	90143
#	100910
#	113868
#	131772
#	146457
#
# Disc length: 2028 seconds
#
# Revision: 0
# Processed by: cddbd v1.5.1PL0 Copyright (c) Steve Scherf et al.
# Submitted via: EasyCDDAExtractor 4.6.0.1
#
DISCID=8607ea0b
DTITLE=Ten Cent Shooters - Wild about it
DYEAR=1900
DGENRE=Blues
TTITLE0=Wild about it
TTITLE1=Dont want me baby
TTITLE2=Special rider
TTITLE3=Weekday women
TTITLE4=New moon blues
TTITLE5=can't be satisfied
TTITLE6=Ketucky moon walz
TTITLE7=take me back
TTITLE8=kokomo blues
TTITLE9=live that life
TTITLE10=saturday night rub
EXTD=
EXTT0=
EXTT1=
EXTT2=
EXTT3=
EXTT4=
EXTT5=
EXTT6=
EXTT7=
EXTT8=
EXTT9=
EXTT10=
PLAYORDER=
